<svg xmlns="http://www.w3.org/2000/svg" xmlns:xlink="http://www.w3.org/1999/xlink" version="1.1" x="0px" y="0px" viewBox="0 0 512 640" enable-background="new 0 0 512 512" xml:space="preserve"><g><path fill="white" d="M141.3,354.3H43c-22.6,0-41,18.4-41,41v57.4h180.3v-57.4C182.3,372.7,163.9,354.3,141.3,354.3z M43,370.7h98.3   c10.7,0,19.7,6.9,23.1,16.4H19.9C23.3,377.6,32.3,370.7,43,370.7z M18.4,436.3v-32.8h147.5v32.8H18.4z"/><path fill="white" d="M495.5,156c-9.4-9.1-21.8-14.1-34.8-13.6l-294.8,7.3v8h-32.8v-32.8h-16.4v-16.4h8.2c13.6,0,24.6-11,24.6-24.6   s-11-24.6-24.6-24.6H43c-13.6,0-24.6,11-24.6,24.6s11,24.6,24.6,24.6h8.2v16.4H34.8V256h16.4v16.4H43c-13.6,0-24.6,11-24.6,24.6   s11,24.6,24.6,24.6h81.9c13.6,0,24.6-11,24.6-24.6s-11-24.6-24.6-24.6h-8.2V256h16.4v-32.8h32.8v8l294.8,7.2c0.4,0,0.9,0,1.4,0   c12.6,0,24.4-4.8,33.4-13.6c9.4-9.1,14.5-21.4,14.5-34.4C510,177.4,504.8,165.1,495.5,156z M133.1,297c0,4.5-3.7,8.2-8.2,8.2H43   c-4.5,0-8.2-3.7-8.2-8.2s3.7-8.2,8.2-8.2h81.9C129.4,288.8,133.1,292.5,133.1,297z M43,92.1c-4.5,0-8.2-3.7-8.2-8.2   s3.7-8.2,8.2-8.2h81.9c4.5,0,8.2,3.7,8.2,8.2s-3.7,8.2-8.2,8.2h-8.2v0H51.2v0H43z M67.5,108.5h32.8v16.4H67.5V108.5z M100.3,272.4   H67.5V256h32.8V272.4z M116.7,239.6H51.2v-98.3h65.5v16.4v65.5V239.6z M133.1,206.8v-32.8h32.8v32.8H133.1z M484,213.1   c-6.2,6-14.3,9.3-22.9,8.9l-278.8-6.9v-49.6l278.8-6.9c8.6-0.2,16.8,2.9,22.9,8.9c6.2,6,9.6,14.1,9.6,22.7   C493.6,199.1,490.2,207.1,484,213.1z"/><rect fill="white" x="206.8" y="182.3" width="16.4" height="16.4"/><rect fill="white" x="239.6" y="182.3" width="16.4" height="16.4"/><rect fill="white" x="272.4" y="182.3" width="16.4" height="16.4"/></g><text x="0" y="527" fill="#000000" font-size="5px" font-weight="bold" font-family="'Helvetica Neue', Helvetica, Arial-Unicode, Arial, Sans-serif">Created by Icon Fair</text><text x="0" y="532" fill="#000000" font-size="5px" font-weight="bold" font-family="'Helvetica Neue', Helvetica, Arial-Unicode, Arial, Sans-serif">from the Noun Project</text></svg>
