<svg xmlns="http://www.w3.org/2000/svg" xmlns:xlink="http://www.w3.org/1999/xlink" version="1.1" x="0px" y="0px" viewBox="0 0 100 125" enable-background="new 0 0 100 100" xml:space="preserve"><path fill="#000000" d="M81.126,83.204l-5.5-10.56c-0.287-0.55-1-0.707-1.491-0.329c-7.349,5.66-15.791,8.902-24.333,8.902  c-8.544,0-16.984-3.241-24.334-8.902c-0.491-0.377-1.204-0.221-1.491,0.329l-5.5,10.56c-0.226,0.435-0.102,0.969,0.29,1.26  c9.283,6.889,19.295,10.276,31.036,10.276c11.741,0,21.752-3.388,31.035-10.276C81.229,84.173,81.353,83.639,81.126,83.204z   M20.641,83.358l4.562-8.76c7.456,5.475,15.954,8.611,24.598,8.611s17.142-3.137,24.598-8.61l4.562,8.76  c-8.748,6.297-18.141,9.39-29.16,9.39S29.389,89.656,20.641,83.358z"/><g><defs><path id="c" d="M51.013,69.741c-14.856,0-26.899-12.042-26.899-26.898c0-0.55-0.446-0.996-0.996-0.996    c-0.55,0-0.995,0.446-0.995,0.996c0,15.955,12.934,28.888,28.89,28.888c0.55,0,0.996-0.445,0.996-0.995    C52.009,70.187,51.563,69.741,51.013,69.741z"/></defs><use xlink:href="#c" overflow="visible" fill="#000000"/><clipPath><use xlink:href="#c" overflow="visible"/></clipPath></g><g><defs><path id="b" d="M66.088,50.014c0.879,0,1.592,0.71,1.592,1.59c0,0.876-0.712,1.588-1.592,1.588    c-0.876,0-1.588-0.712-1.588-1.588C64.5,50.724,65.211,50.014,66.088,50.014 M66.088,48.022c-1.972,0-3.579,1.607-3.579,3.582    c0,1.974,1.607,3.579,3.579,3.579c1.974,0,3.583-1.605,3.583-3.579C69.67,49.629,68.062,48.022,66.088,48.022"/></defs><use xlink:href="#b" overflow="visible" fill-rule="evenodd" clip-rule="evenodd" fill="#000000"/><clipPath><use xlink:href="#b" overflow="visible"/></clipPath></g><path fill-rule="evenodd" clip-rule="evenodd" fill="#000000" d="M75.301,19.163l2.682-0.707c0.875-0.229,1.483-1.021,1.483-1.925  c0-0.904-0.609-1.694-1.483-1.925l-4.172-1.098l-1.302-6.64c-0.185-0.934-1.002-1.608-1.954-1.608c-0.952,0-1.77,0.674-1.955,1.608  l-1.218,6.213c-5.255-2.977-11.199-4.584-17.384-4.584c-5.304,0-10.431,1.182-15.104,3.403c-0.803-0.979-2.007-1.619-3.37-1.619  c-2.413,0-4.376,1.963-4.376,4.376c0,0.673,0.166,1.304,0.439,1.875C19.468,23.188,14.64,33.119,14.64,43.856  c0,19.528,15.832,35.361,35.359,35.361c19.529,0,35.361-15.833,35.361-35.361C85.36,34.483,81.693,25.698,75.301,19.163z   M70.556,7.251l1.543,7.864l5.378,1.416l-4.383,1.154c0,0-0.001,0-0.002,0l-0.253,0.067l-0.74,0.195l-0.12,0.609  c0,0.001,0,0.002-0.001,0.003l-1.423,7.247l-1.543-7.859l-5.377-1.416l0,0l5.377-1.416L70.556,7.251z M31.525,12.271  c0.936,0,1.739,0.545,2.129,1.331c0.004,0.009,0.003,0.019,0.008,0.028c0.073,0.138,0.125,0.286,0.166,0.438  c0.006,0.023,0.016,0.045,0.021,0.069c0.038,0.164,0.059,0.333,0.06,0.51c0,0.003,0.001,0.007,0.001,0.01  c0,1.314-1.071,2.383-2.386,2.383c-0.177,0-0.35-0.021-0.517-0.059c-0.037-0.008-0.071-0.023-0.108-0.033  c-0.129-0.036-0.256-0.077-0.376-0.134c-0.034-0.016-0.066-0.036-0.1-0.054c-0.125-0.066-0.246-0.14-0.356-0.229  c-0.014-0.01-0.026-0.021-0.04-0.032c-0.128-0.107-0.247-0.226-0.351-0.36c-0.007-0.009-0.018-0.013-0.025-0.022  c-0.316-0.404-0.512-0.907-0.512-1.459C29.141,13.339,30.209,12.271,31.525,12.271z M49.999,77.226  c-18.429,0-33.369-14.941-33.369-33.37c0-10.124,4.546-19.485,12.198-25.767c0.043,0.035,0.091,0.065,0.136,0.098  c0.061,0.044,0.118,0.09,0.181,0.131c0.19,0.125,0.39,0.231,0.598,0.325c0.056,0.025,0.112,0.049,0.169,0.071  c0.221,0.089,0.449,0.162,0.684,0.213c0.047,0.01,0.095,0.016,0.142,0.025c0.247,0.045,0.498,0.074,0.754,0.076  c0.011,0,0.021,0.003,0.033,0.003c2.413,0,4.376-1.964,4.376-4.375c0,0,0,0,0-0.001c0,0,0,0,0,0c0-0.269-0.032-0.531-0.08-0.789  c-0.009-0.049-0.016-0.098-0.026-0.146c-0.003-0.014-0.005-0.028-0.008-0.042c4.397-2.083,9.219-3.192,14.211-3.192  c5.325,0,10.46,1.253,15.084,3.603l-1.958,0.515c-0.153,0.041-0.294,0.104-0.429,0.176c-0.636,0.341-1.054,1.004-1.054,1.75  c0,0,0,0,0,0l0,0c0,0.904,0.609,1.694,1.481,1.925l4.173,1.098l0.915,4.655l0.389,1.985c0.015,0.078,0.042,0.151,0.065,0.225  c0.26,0.813,1.016,1.383,1.888,1.383h0h0c0.357,0,0.695-0.095,0.988-0.263c0.015-0.009,0.028-0.021,0.042-0.029  c0.082-0.05,0.162-0.102,0.235-0.162c0.007-0.006,0.013-0.014,0.02-0.02c0.335-0.284,0.578-0.677,0.668-1.134l1.058-5.396  l0.09-0.459c6.165,6.19,9.711,14.565,9.711,23.517C83.369,62.285,68.429,77.226,49.999,77.226z"/><g><defs><path id="a" d="M49.102,24.235l1.211,6.172l4.221,1.111l-4.221,1.11L49.102,38.8l-1.212-6.172l-4.22-1.11l4.22-1.111    L49.102,24.235 M49.102,22.244c-0.952,0-1.77,0.674-1.955,1.608l-0.971,4.947l-3.014,0.793c-0.875,0.23-1.484,1.02-1.484,1.925    c0,0.904,0.61,1.696,1.484,1.925l3.014,0.792l0.971,4.948c0.185,0.935,1.003,1.608,1.955,1.608c0.952,0,1.771-0.673,1.954-1.608    l0.97-4.948l3.014-0.792c0.875-0.229,1.485-1.021,1.485-1.925c0-0.905-0.609-1.695-1.485-1.925l-3.014-0.793l-0.97-4.947    C50.873,22.918,50.054,22.244,49.102,22.244"/></defs><use xlink:href="#a" overflow="visible" fill-rule="evenodd" clip-rule="evenodd" fill="#000000"/><clipPath><use xlink:href="#a" overflow="visible"/></clipPath></g><text x="0" y="115" fill="#000000" font-size="5px" font-weight="bold" font-family="'Helvetica Neue', Helvetica, Arial-Unicode, Arial, Sans-serif">Created by Polina Flegontovna</text><text x="0" y="120" fill="#000000" font-size="5px" font-weight="bold" font-family="'Helvetica Neue', Helvetica, Arial-Unicode, Arial, Sans-serif">from the Noun Project</text></svg>