<svg xmlns="http://www.w3.org/2000/svg" xmlns:xlink="http://www.w3.org/1999/xlink" version="1.1" x="0px" y="0px" viewBox="0 0 42 52.5" enable-background="new 0 0 42 42" xml:space="preserve"><path d="M27,12c-0.744,0-1.459,0.042-2.141,0.12c0.054-0.28,0.091-0.558,0.091-0.83c0-3.627-4.197-6.26-9.98-6.26  c-5.74,0-9.777,2.443-9.962,5.97H5v0.112c-0.001,0.047-0.01,0.091-0.01,0.138c0,0.047,0.008,0.091,0.01,0.138V24.29  C5,27.492,9.393,30,15,30c0.676,0,1.342-0.058,2-0.142v1.432C17,34.492,21.393,37,27,37c5.514,0,10-2.691,10-6V18h-0.017  C36.807,14.457,32.758,12,27,12z M35,18.238C35,20.819,31.337,23,27,23s-8-2.181-8-4.762C19,15.822,22.439,14,27,14  S35,15.822,35,18.238z M14.97,7.03c4.55,0,7.98,1.832,7.98,4.26c0,0.399-0.117,0.836-0.326,1.261  c-2.195,0.599-3.872,1.659-4.801,3.041l-0.084,0.023c-1.012,0.273-1.922,0.395-2.949,0.395c-4.236,0-7.686-2.072-7.79-4.642v-0.227  C7.104,8.79,10.491,7.03,14.97,7.03z M7,15.387c1.776,1.602,4.575,2.623,7.79,2.623c0.771,0,1.485-0.058,2.21-0.183V18v1.836  C16.345,19.933,15.679,20,15,20c-4.715,0-8-1.955-8-3.71V15.387z M7,19.745C8.81,21.121,11.688,22,15,22  c0.676,0,1.342-0.058,2-0.142v1.978C16.345,23.933,15.679,24,15,24c-4.715,0-8-1.955-8-3.71V19.745z M15,28c-4.715,0-8-1.955-8-3.71  v-0.545C8.81,25.121,11.688,26,15,26c0.676,0,1.342-0.058,2-0.142v1.978C16.345,27.933,15.679,28,15,28z M27,35  c-4.715,0-8-1.955-8-3.71v-0.545C20.81,32.121,23.688,33,27,33c3.273,0,6.175-0.953,8-2.415V31C35,32.85,31.506,35,27,35z M27,31  c-4.715,0-8-1.956-8-3.712v-0.543C20.81,28.121,23.688,29,27,29c3.273,0,6.175-0.953,8-2.415V27C35,28.85,31.506,31,27,31z M27,27  c-4.715,0-8-1.956-8-3.712V22.33c1.81,1.629,4.688,2.67,8,2.67s6.19-1.041,8-2.67V23C35,24.85,31.506,27,27,27z"/><path d="M14,15h2v-1h1v-2c0-0.526-0.448-1-1-1h-1v-1h2V9h-1V8h-2v1h-1v2.047C13,11.573,13.448,12,14,12h1v1h-2v1h1V15z"/><path d="M26,22h2v-1h1v-2c0-0.526-0.448-1-1-1h-1v-1h2v-1h-1v-1h-2v1h-1v2.047C25,18.573,25.448,19,26,19h1v1h-2v1h1V22z"/><text x="0" y="57" fill="#000000" font-size="5px" font-weight="bold" font-family="'Helvetica Neue', Helvetica, Arial-Unicode, Arial, Sans-serif">Created by Josy Dom Alexis</text><text x="0" y="62" fill="#000000" font-size="5px" font-weight="bold" font-family="'Helvetica Neue', Helvetica, Arial-Unicode, Arial, Sans-serif">from the Noun Project</text></svg>
